# xmcd
#
# Track frame offsets:
#	150
#	14194
#	23915
#	35550
#	47076
#	58949
#	69624
#	81379
#	93946
#	105700
#	114618
#	131559
#
# Disc length: 1899 seconds
#
# Revision: 0
# Processed by: cddbd v1.5.2PL0 Copyright (c) Steve Scherf et al.
# Submitted via: audiograbber 1.83.01
#
DISCID=ac07690c
DTITLE=Bobby Solo - Flashback Collection CD1
DYEAR=1900
DGENRE=
TTITLE0=Una Lacrima Sul Viso
TTITLE1=Blu E Blu
TTITLE2=Ora Che Sei Gia Una Donna
TTITLE3=Credi A Me
TTITLE4=La Casa Del Signore
TTITLE5=Cristina
TTITLE6=Non Dimenticar
TTITLE7=La Nostra Terra
TTITLE8=In Fonda Agli Occhi
TTITLE9=Tom Dooley
TTITLE10=Come Sempre
TTITLE11=Moon River
EXTD=
EXTT0=
EXTT1=
EXTT2=
EXTT3=
EXTT4=
EXTT5=
EXTT6=
EXTT7=
EXTT8=
EXTT9=
EXTT10=
EXTT11=
PLAYORDER=
